<svg width="60" height="46" viewBox="0 0 60 46" version="1.1" xmlns="http://www.w3.org/2000/svg" xmlns:xlink="http://www.w3.org/1999/xlink">
<title>Fill 1</title>
<desc>Created using Figma</desc>
<g id="Canvas" transform="translate(-11607 3609)">
<g id="Fill 1">
<use xlink:href="#path0_fill" transform="translate(11607 -3608.5)" fill="#424242"/>
</g>
</g>
<defs>
<path id="path0_fill" fill-rule="evenodd" d="M 37.0275 21.1275L 56.25 5.6625L 56.25 39.1875L 37.0275 21.1275ZM 25.9275 23.5012L 28.8263 25.8337L 28.845 25.8112C 29.1637 26.07 29.5575 26.25 30 26.25C 30.4463 26.25 30.8363 26.07 31.1588 25.8112L 31.1775 25.8337L 34.0762 23.5012L 52.965 41.25L 7.035 41.25L 25.9275 23.5012ZM 22.9762 21.1275L 3.75 39.1875L 3.75 5.65125L 22.9762 21.1275ZM 30 21.9675L 7.36875 3.75L 52.6462 3.75L 30 21.9675ZM 54.375 8.90577e-11L 5.625 8.90577e-11C 2.52375 8.90577e-11 3.78932e-11 2.52 3.78932e-11 5.625L 3.78932e-11 39.375C 3.78932e-11 42.4762 2.52375 45 5.625 45L 54.375 45C 57.48 45 60 42.4762 60 39.375L 60 5.625C 60 2.52 57.48 8.90577e-11 54.375 8.90577e-11Z"/>
</defs>
</svg>
