<svg width="18" height="20" viewBox="0 0 18 20" version="1.1" xmlns="http://www.w3.org/2000/svg" xmlns:xlink="http://www.w3.org/1999/xlink">
<title>Vector</title>
<desc>Created using Figma</desc>
<g id="Canvas" transform="translate(-3122 -13780)">
<g id="Vector">
<use xlink:href="#path0_fill" transform="matrix(-1 0 0 1 3139.64 13780)" fill="#2F80ED"/>
</g>
</g>
<defs>
<path id="path0_fill" d="M 5.33387 19.2966C 6.46232 19.7817 7.68116 20.021 8.90928 19.9985C 10.1374 19.976 11.3467 19.6923 12.4566 19.1661C 14.4701 18.2463 16.0786 16.6232 16.9803 14.6015C 18.6604 10.6542 17.1733 5.03211 12.2853 2.95239C 10.3888 2.15708 8.27516 2.04371 6.30441 2.6316L 7.00037 0.753049L 4.96143 -1.24447e-07L 3.02579 5.23057L 8.05518 7.6773L 9.00125 5.71991L 6.95144 4.72763C 8.43041 4.29535 10.0125 4.37973 11.4371 4.96686C 14.0252 6.0543 16.6949 9.73527 14.9713 13.7615C 14.2754 15.2788 13.0593 16.4968 11.5431 17.1951C 10.7105 17.5955 9.80137 17.8117 8.87765 17.829C 7.95393 17.8464 7.03731 17.6645 6.19023 17.2957C 5.05039 16.8092 4.06987 16.0127 3.36006 14.9968C 2.65026 13.9808 2.23965 12.7862 2.17487 11.5486L 2.48894e-07 11.709C 0.258266 15.1616 2.25099 17.9862 5.33387 19.2966Z"/>
</defs>
</svg>
