<svg xmlns="http://www.w3.org/2000/svg" viewBox="0 0 128 186" enable-background="new 0 0 128 186"><style type="text/css">.st0{fill:#030304;}</style><path class="st0" d="M57.4 6.5c7.4-2.7 16.4-.4 21.6 5.5 6.4 7 6.9 18.5.9 25.9-5.2 6.9-15.1 9.6-23.1 6.5-6.4-2.4-11.4-8.2-12.6-15-2.1-9.5 3.9-19.9 13.2-22.9zM32.6 52.6c4.3-4 9.9-6.2 15-8.8 8.9 8.2 23.8 8.3 32.7 0 5.8 3 12.3 5.3 16.5 10.5 2.8 3.5 3.4 8.1 3.6 12.4-24.3.1-48.6.1-72.9 0 .2-5.1 1.3-10.5 5.1-14.1zM5.7 71.2h116.6c-2.1 8.3-3.2 17-5.8 25.1-8.2-.2-16.5-.1-24.7-.1-1.3 23.9-2.9 47.7-4.3 71.6 5 0 10-.1 15 .1v12.6h-77.1c0-4.2-.1-8.5.1-12.7l14.9.1c-1.4-23.9-3-47.7-4.3-71.6-8.2 0-16.4-.1-24.6.1-2.6-8.2-3.7-16.8-5.8-25.2z"/></svg>